M48
;Layer_Color=9474304
;FILE_FORMAT=2:4
INCH,TZ
;TYPE=PLATED
T1F00S00C0.0119
T2F00S00C0.0138
T3F00S00C0.0320
T4F00S00C0.0402
T5F00S00C0.0433
T6F00S00C0.0630
T7F00S00C0.1280
;TYPE=NON_PLATED
T8F00S00C0.0870
%
T01
X69326Y11576
X69026Y12300
X69326Y13024
X70050Y13324
X70774Y13024
X71074Y12300
X70774Y11576
X70050Y11276
X12049Y16351
X11324Y16052
X10600Y16351
X10301Y17076
X10600Y17800
X11324Y18099
X12049Y17800
X12348Y17076
T02
X5750Y10250
Y11250
X5800Y12250
X5750Y13250
Y14200
X5906Y15354
X8268
X9449
X10630
X11811
X12992
X13050Y13650
X13137Y13364
X12471Y13440
X12402Y14173
X11811Y12992
X11800Y11900
X12200
Y11450
X11800
X11400
Y11000
X11800
X12200
X12450Y10250
X13600
X15150
X15350Y11650
X14900
X14393Y11803
X14129Y11810
X13300Y11800
X12800
Y12600
X11400Y11900
X11000Y11000
X10550
X10050
Y11450
Y11900
X10630Y12992
X9449
X10039Y14173
X9350Y10250
X7950
X6800
X10950
X14950Y12650
X15350
X14850Y13450
X14842Y14555
X14900Y15300
X15350
X18898Y15354
X20079
X21260
X21350Y14300
X21750
X22150Y14050
X22200Y13750
Y13450
Y13150
Y12850
X22550
Y13150
Y13450
Y13750
Y14050
X23350
Y13750
Y13450
Y13150
Y12850
X23700
Y13150
Y13450
Y13750
Y14050
X24200Y14300
X24600
X25000Y14050
X25050Y13750
Y13450
Y13150
Y12850
X25400
Y13150
Y13450
Y13750
Y14050
X24803Y15354
X25150Y11400
X25550
X26000
X26450
X26900
X27350
X27800
X27750Y11000
X28250
Y11400
X27950Y10500
X29300Y10300
X30300
X29800Y11200
X30800
X30300Y14450
X30709Y15354
X29528
X28650Y14450
X26000Y10950
X25984Y10630
X25550Y10500
X25150
Y10950
X25550
X23600Y11000
X23622Y10630
X23200Y10950
X22900Y10550
X22350Y10250
X20950
X19600
X18050
X16700
X17950Y12600
Y12900
X20500Y12850
Y13150
Y13450
Y13750
Y14050
X20850
Y13750
Y13450
Y13150
Y12850
X23600Y11400
X31300Y10300
X32650Y14400
X31890Y15354
X34252
X35433
X36614
X37795
X37250Y14350
X39050
X40157Y15354
X41339
X42520
X41700Y14400
X43450Y14350
X43823Y14681
X44350Y14350
X44882Y15354
X46063
X46300Y14400
X34600
X47244Y15354
X48425
X49606
X50500Y14400
X50787Y12992
X51968
X53150
X54100Y13050
Y13300
X54050Y14300
X54550Y14600
X54963Y14210
Y13733
X55750Y13550
X56850
X57600Y13700
Y14200
X58400Y14450
X58432Y13645
X58500Y13280
Y13030
X59116Y13066
Y13316
X59173Y13630
X59986Y13751
X59979Y14192
X59509Y14291
X59200Y15150
X58150Y15100
X57689Y15331
X57658Y12709
X56762Y11940
X56395Y11932
X56400Y11350
X56800
X56693Y10630
X57874
X59055
X60236
X61417
X61420Y11364
X61821
X61702Y11946
X61415Y11946
X61858Y13725
X60773Y13730
X54331Y15354
X53150
X51968
X52559Y11811
X51378
X50197
X49016
X49606Y12992
Y10630
X48425
X51968
X53150
X54331
X55512
X62598
X63780
X64961
X66142
X67323
X68504
X69685
X70866
X71457Y14173
X70276
X69094
X67913
X68504Y15354
X69685
X70866
X67323
X66142
X64961
X63780
X63800Y14650
X63528Y14345
X63500Y13300
X63512Y13049
X63649Y12663
X64370Y11811
X65551
X66732
X66900Y12400
X67913Y11811
X68504Y12992
X65950Y13450
X65551Y14173
X64961Y12992
X62608Y13741
X62616Y14182
X63189Y16535
X64370
X65551
X67000Y16750
X67550Y16700
X67913Y16535
X68100Y16850
X68350Y17200
X68504Y17717
X69094Y16535
X70276
X71457
X64961Y17717
X63780
X59055
X59646Y16535
X58465
X53740
X52559
X51378
X50197
X49016
X47835
X48425Y17717
X47244
X49000Y18770
X53150Y17717
X54331
X46654Y16535
X45472
X43110
X41929
X40748
X39567
X38386
X37205
X36024
X34843
X33661
X32480
X31299
X33071Y17717
X35433
X36614
X41339
X42520
X30709
X29528
X28346
X27350Y17050
X27450Y15700
X25394Y16535
X21850
X21000Y16800
X20669Y16535
X20150Y16450
X19488Y16535
X17850Y16350
Y17000
X17100
X17126Y16535
X15945
X15650Y18350
X20450
X20950Y18200
X21260Y17717
X21250Y17200
X22350Y17450
X30118Y16535
X15550Y16900
X14900
X15200Y16600
X15450Y16250
X14900
X14411Y16199
X14161
X13583Y16535
X14173Y17717
X14750Y17600
X15050Y18200
X12992Y17717
X9449
X8268
X8858Y16535
X7677
X6496
X5906Y17717
T03
X28800Y10650
X29800
X30800
X30300Y11400
X29300
X28800Y12150
X29800
X30800
X30300Y12900
X29300
X31300
X32300
X33300
X34300
X35300
X36300
X37300
X38300
X39300
X40300
X41300
X42300
X43300
X44300
X45300
X46300
X45800Y12150
X44800
X43800
X42800
X41800
X40800
X39800
X38800
X37800
X36800
X35800
X34800
X33800
X32800
X31800
X31300Y11400
X32300
X33300
X34300
X35300
X36300
X37300
X38300
X39300
X40300
X41300
X42300
X43300
X44300
X45300
X46300
X45800Y10650
X44800
X43800
X42800
X41800
X40800
X39800
X38800
X37800
X36800
X35800
X34800
X33800
X32800
X31800
X46800
Y12150
X47800
X47300Y11400
X48300
X47800Y10650
X47300Y12900
X48300
T04
X66550Y17500
X67550
X69550
X70550
X62000
X61000
X57000
X56000
X52050
X51050
X50050
X49050
X46103
X45103
X44103
X43103
X40325
X39325
X38325
X37325
X34561
X33561
X32561
X31561
X28850
X27850
X26850
X25850
X20449
X19449
X16650
X15650
T05
X17315Y13400
X18315
X19315
Y14500
X18315
X17315
T06
X7050Y11700
Y13667
Y15633
Y17600
T07
X70050Y12300
X11324Y17076
T08
X27050Y10650
X50550
M30
