G04*
G04 #@! TF.GenerationSoftware,Altium Limited,Altium Designer,21.2.2 (38)*
G04*
G04 Layer_Color=65535*
%FSLAX25Y25*%
%MOIN*%
G70*
G04*
G04 #@! TF.SameCoordinates,68047672-1E7F-4675-B640-9537CBAF5E22*
G04*
G04*
G04 #@! TF.FilePolarity,Positive*
G04*
G01*
G75*
%ADD10C,0.00598*%
%ADD11C,0.00787*%
%ADD12C,0.00600*%
%ADD13C,0.00472*%
%ADD14C,0.00787*%
%ADD15C,0.01000*%
D10*
X145551Y135500D02*
Y136500D01*
Y143500D02*
Y144500D01*
X145051Y135500D02*
X145551D01*
X132551D02*
X134551D01*
X132551Y144500D02*
X134551D01*
X145051D02*
X145551D01*
X558457Y134187D02*
Y134687D01*
Y121687D02*
Y123687D01*
X567457Y121687D02*
Y123687D01*
Y134187D02*
Y134687D01*
X558457D02*
X559457D01*
X566457D02*
X567457D01*
X616659Y134714D02*
X617659D01*
X608659D02*
X609659D01*
X617659Y134214D02*
Y134714D01*
Y121714D02*
Y123714D01*
X608659Y121714D02*
Y123714D01*
Y134214D02*
Y134714D01*
D11*
X202508Y110508D02*
Y131817D01*
Y110508D02*
X210677D01*
X220323D02*
X228492D01*
Y131817D01*
X207183Y136492D02*
X210677D01*
X202508Y131817D02*
X207183Y136492D01*
X223817D02*
X228492Y131817D01*
X220323Y136492D02*
X223817D01*
X248823D02*
X252317D01*
X256992Y131817D01*
X231008D02*
X235683Y136492D01*
X239177D01*
X256992Y110508D02*
Y131817D01*
X248823Y110508D02*
X256992D01*
X231008D02*
X239177D01*
X231008D02*
Y131817D01*
X121492Y120683D02*
Y141992D01*
X113323D02*
X121492D01*
X95508D02*
X103677D01*
X95508Y120683D02*
Y141992D01*
X113323Y116008D02*
X116817D01*
X121492Y120683D01*
X95508D02*
X100183Y116008D01*
X103677D01*
D12*
X298695Y102500D02*
X307305D01*
X308695D02*
X317305D01*
X318695D02*
X327305D01*
X328695D02*
X337305D01*
X338695D02*
X347305D01*
X348695D02*
X357305D01*
X358695D02*
X367305D01*
X368695D02*
X377305D01*
X378695D02*
X387305D01*
X388695D02*
X397305D01*
X398695D02*
X407305D01*
X408695D02*
X417305D01*
X418695D02*
X427305D01*
X428695D02*
X437305D01*
X438695D02*
X447305D01*
X448695D02*
X457305D01*
X458695D02*
X467305D01*
X468695D02*
X477305D01*
X478695D02*
X506000D01*
X270000Y72000D02*
Y102500D01*
Y72000D02*
X506000D01*
Y102500D01*
X270000D02*
X287305D01*
X262700Y101500D02*
Y134900D01*
Y101500D02*
X513300D01*
Y134900D01*
X262700D02*
X513300D01*
X288695Y102500D02*
X297305D01*
D13*
X594500Y144252D02*
X597500D01*
X586500D02*
X589500D01*
X194402Y120500D02*
Y123500D01*
X235600Y165680D02*
X238600D01*
X226500Y165850D02*
X229500D01*
D14*
X483728Y168228D02*
Y181772D01*
Y168228D02*
X527272D01*
Y181772D01*
X483728D02*
X527272D01*
X424254Y168228D02*
Y181772D01*
Y168228D02*
X467798D01*
Y181772D01*
X424254D02*
X467798D01*
X553228Y168228D02*
Y181772D01*
Y168228D02*
X576772D01*
X553228Y181772D02*
X576772D01*
Y168228D02*
Y181772D01*
X366478D02*
X410022D01*
Y168228D02*
Y181772D01*
X366478Y168228D02*
X410022D01*
X366478D02*
Y181772D01*
X308836D02*
X352380D01*
Y168228D02*
Y181772D01*
X308836Y168228D02*
X352380D01*
X308836D02*
Y181772D01*
X251728D02*
X295272D01*
Y168228D02*
Y181772D01*
X251728Y168228D02*
X295272D01*
X251728D02*
Y181772D01*
X149728Y168228D02*
Y181772D01*
Y168228D02*
X173272D01*
X149728Y181772D02*
X173272D01*
Y168228D02*
Y181772D01*
X211266Y168228D02*
Y181772D01*
X187722D02*
X211266D01*
X187722Y168228D02*
X211266D01*
X187722D02*
Y181772D01*
X626772Y168228D02*
Y181772D01*
X603228D02*
X626772D01*
X603228Y168228D02*
X626772D01*
X603228D02*
Y181772D01*
X712272Y168228D02*
Y181772D01*
X688728D02*
X712272D01*
X688728Y168228D02*
X712272D01*
X688728D02*
Y181772D01*
X682272Y168228D02*
Y181772D01*
X658728D02*
X682272D01*
X658728Y168228D02*
X682272D01*
X658728D02*
Y181772D01*
D15*
X265908Y139624D02*
Y137000D01*
X269844D01*
Y139624D01*
X267876Y137000D02*
Y138312D01*
X265908Y140936D02*
X269844Y143560D01*
X265908D02*
X269844Y140936D01*
X265908Y144871D02*
Y147495D01*
Y146183D01*
X269844D01*
X270500Y148807D02*
Y151431D01*
X265908Y154711D02*
Y153399D01*
X266564Y152743D01*
X269188D01*
X269844Y153399D01*
Y154711D01*
X269188Y155367D01*
X266564D01*
X265908Y154711D01*
X269844Y156679D02*
X265908D01*
X269844Y159302D01*
X265908D01*
X260000Y145500D02*
X256064D01*
Y147468D01*
X256720Y148124D01*
X258032D01*
X258688Y147468D01*
Y145500D01*
X256064Y149436D02*
X260000D01*
X258688Y150748D01*
X260000Y152060D01*
X256064D01*
X260000Y153372D02*
X256064D01*
Y155339D01*
X256720Y155995D01*
X258032D01*
X258688Y155339D01*
Y153372D01*
Y154683D02*
X260000Y155995D01*
X281000Y148000D02*
X277064D01*
Y149968D01*
X277720Y150624D01*
X279032D01*
X279688Y149968D01*
Y148000D01*
X277064Y151936D02*
X281000D01*
Y153904D01*
X280344Y154560D01*
X277720D01*
X277064Y153904D01*
Y151936D01*
X203124Y156280D02*
X202468Y156936D01*
X201156D01*
X200500Y156280D01*
Y153656D01*
X201156Y153000D01*
X202468D01*
X203124Y153656D01*
Y154968D01*
X201812D01*
X204436Y153000D02*
Y156936D01*
X207060Y153000D01*
Y156936D01*
X208371D02*
Y153000D01*
X210339D01*
X210995Y153656D01*
Y156280D01*
X210339Y156936D01*
X208371D01*
X188000Y153000D02*
X189312D01*
X188656D01*
Y156936D01*
X188000Y156280D01*
X193904Y153000D02*
X191280D01*
X193904Y155624D01*
Y156280D01*
X193248Y156936D01*
X191936D01*
X191280Y156280D01*
X195215Y156936D02*
Y154312D01*
X196527Y153000D01*
X197839Y154312D01*
Y156936D01*
X287408Y140624D02*
Y138000D01*
X289376D01*
Y139312D01*
Y138000D01*
X291344D01*
Y141936D02*
X288720D01*
X287408Y143248D01*
X288720Y144560D01*
X291344D01*
X289376D01*
Y141936D01*
X291344Y145871D02*
X287408D01*
X291344Y148495D01*
X287408D01*
X292000Y149807D02*
Y152431D01*
X287408Y156367D02*
Y153743D01*
X291344D01*
Y156367D01*
X289376Y153743D02*
Y155055D01*
X291344Y157679D02*
X287408D01*
X291344Y160302D01*
X287408D01*
X498375Y154936D02*
Y151656D01*
X499031Y151000D01*
X500343D01*
X500999Y151656D01*
Y154936D01*
X502311Y151000D02*
Y153624D01*
X503623Y154936D01*
X504935Y153624D01*
Y151000D01*
Y152968D01*
X502311D01*
X506247Y151000D02*
Y154936D01*
X508214D01*
X508870Y154280D01*
Y152968D01*
X508214Y152312D01*
X506247D01*
X507558D02*
X508870Y151000D01*
X510182Y154936D02*
X512806D01*
X511494D01*
Y151000D01*
X481000Y148780D02*
X481656Y149436D01*
X482968D01*
X483624Y148780D01*
Y148124D01*
X482968Y147468D01*
X482312D01*
X482968D01*
X483624Y146812D01*
Y146156D01*
X482968Y145500D01*
X481656D01*
X481000Y146156D01*
X484936Y149436D02*
Y146812D01*
X486248Y145500D01*
X487560Y146812D01*
Y149436D01*
X488871Y148780D02*
X489527Y149436D01*
X490839D01*
X491495Y148780D01*
Y148124D01*
X490839Y147468D01*
X490183D01*
X490839D01*
X491495Y146812D01*
Y146156D01*
X490839Y145500D01*
X489527D01*
X488871Y146156D01*
X496743Y145500D02*
Y149436D01*
X498711D01*
X499367Y148780D01*
Y147468D01*
X498711Y146812D01*
X496743D01*
X498055D02*
X499367Y145500D01*
X500679Y149436D02*
X503302Y145500D01*
Y149436D02*
X500679Y145500D01*
X508550Y149436D02*
X511174D01*
X509862D01*
Y145500D01*
X512486Y149436D02*
X515110Y145500D01*
Y149436D02*
X512486Y145500D01*
X522981Y148780D02*
X522325Y149436D01*
X521013D01*
X520357Y148780D01*
Y146156D01*
X521013Y145500D01*
X522325D01*
X522981Y146156D01*
Y147468D01*
X521669D01*
X524293Y145500D02*
Y149436D01*
X526917Y145500D01*
Y149436D01*
X528229D02*
Y145500D01*
X530197D01*
X530853Y146156D01*
Y148780D01*
X530197Y149436D01*
X528229D01*
X689500Y156780D02*
X690156Y157436D01*
X691468D01*
X692124Y156780D01*
Y156124D01*
X691468Y155468D01*
X690812D01*
X691468D01*
X692124Y154812D01*
Y154156D01*
X691468Y153500D01*
X690156D01*
X689500Y154156D01*
X693436Y157436D02*
Y154812D01*
X694748Y153500D01*
X696060Y154812D01*
Y157436D01*
X697371Y156780D02*
X698027Y157436D01*
X699339D01*
X699995Y156780D01*
Y156124D01*
X699339Y155468D01*
X698683D01*
X699339D01*
X699995Y154812D01*
Y154156D01*
X699339Y153500D01*
X698027D01*
X697371Y154156D01*
X675124Y156780D02*
X674468Y157436D01*
X673156D01*
X672500Y156780D01*
Y154156D01*
X673156Y153500D01*
X674468D01*
X675124Y154156D01*
Y155468D01*
X673812D01*
X676436Y153500D02*
Y157436D01*
X679060Y153500D01*
Y157436D01*
X680372D02*
Y153500D01*
X682339D01*
X682995Y154156D01*
Y156780D01*
X682339Y157436D01*
X680372D01*
X323483Y155436D02*
Y152156D01*
X324138Y151500D01*
X325450D01*
X326106Y152156D01*
Y155436D01*
X330042Y154780D02*
X329386Y155436D01*
X328074D01*
X327418Y154780D01*
Y154124D01*
X328074Y153468D01*
X329386D01*
X330042Y152812D01*
Y152156D01*
X329386Y151500D01*
X328074D01*
X327418Y152156D01*
X331354Y155436D02*
Y151500D01*
X333322D01*
X333978Y152156D01*
Y152812D01*
X333322Y153468D01*
X331354D01*
X333322D01*
X333978Y154124D01*
Y154780D01*
X333322Y155436D01*
X331354D01*
X335290Y154780D02*
X335946Y155436D01*
X337258D01*
X337914Y154780D01*
Y154124D01*
X337258Y153468D01*
X336602D01*
X337258D01*
X337914Y152812D01*
Y152156D01*
X337258Y151500D01*
X335946D01*
X335290Y152156D01*
X315106Y149936D02*
X312483D01*
Y147968D01*
X313794Y148624D01*
X314450D01*
X315106Y147968D01*
Y146656D01*
X314450Y146000D01*
X313139D01*
X312483Y146656D01*
X316418Y149936D02*
Y147312D01*
X317730Y146000D01*
X319042Y147312D01*
Y149936D01*
X324290Y147968D02*
X326914D01*
X325602Y149280D02*
Y146656D01*
X332161Y147968D02*
X334785D01*
X342657Y149280D02*
X342001Y149936D01*
X340689D01*
X340033Y149280D01*
Y146656D01*
X340689Y146000D01*
X342001D01*
X342657Y146656D01*
Y147968D01*
X341345D01*
X343969Y146000D02*
Y149936D01*
X346592Y146000D01*
Y149936D01*
X347904D02*
Y146000D01*
X349872D01*
X350528Y146656D01*
Y149280D01*
X349872Y149936D01*
X347904D01*
X381125Y154936D02*
Y151656D01*
X381781Y151000D01*
X383093D01*
X383749Y151656D01*
Y154936D01*
X387685Y154280D02*
X387029Y154936D01*
X385717D01*
X385061Y154280D01*
Y153624D01*
X385717Y152968D01*
X387029D01*
X387685Y152312D01*
Y151656D01*
X387029Y151000D01*
X385717D01*
X385061Y151656D01*
X388997Y154936D02*
Y151000D01*
X390964D01*
X391620Y151656D01*
Y152312D01*
X390964Y152968D01*
X388997D01*
X390964D01*
X391620Y153624D01*
Y154280D01*
X390964Y154936D01*
X388997D01*
X395556Y151000D02*
X392932D01*
X395556Y153624D01*
Y154280D01*
X394900Y154936D01*
X393588D01*
X392932Y154280D01*
X372749Y149436D02*
X370125D01*
Y147468D01*
X371437Y148124D01*
X372093D01*
X372749Y147468D01*
Y146156D01*
X372093Y145500D01*
X370781D01*
X370125Y146156D01*
X374061Y149436D02*
Y146812D01*
X375373Y145500D01*
X376685Y146812D01*
Y149436D01*
X381932Y147468D02*
X384556D01*
X383244Y148780D02*
Y146156D01*
X389804Y147468D02*
X392427D01*
X400299Y148780D02*
X399643Y149436D01*
X398331D01*
X397675Y148780D01*
Y146156D01*
X398331Y145500D01*
X399643D01*
X400299Y146156D01*
Y147468D01*
X398987D01*
X401611Y145500D02*
Y149436D01*
X404235Y145500D01*
Y149436D01*
X405547D02*
Y145500D01*
X407514D01*
X408171Y146156D01*
Y148780D01*
X407514Y149436D01*
X405547D01*
X430525Y149485D02*
X427901D01*
Y147517D01*
X429213Y148173D01*
X429869D01*
X430525Y147517D01*
Y146205D01*
X429869Y145550D01*
X428557D01*
X427901Y146205D01*
X431837Y149485D02*
Y146862D01*
X433148Y145550D01*
X434460Y146862D01*
Y149485D01*
X439708Y147517D02*
X442332D01*
X441020Y148829D02*
Y146205D01*
X447580Y147517D02*
X450203D01*
X458075Y148829D02*
X457419Y149485D01*
X456107D01*
X455451Y148829D01*
Y146205D01*
X456107Y145550D01*
X457419D01*
X458075Y146205D01*
Y147517D01*
X456763D01*
X459387Y145550D02*
Y149485D01*
X462011Y145550D01*
Y149485D01*
X463322D02*
Y145550D01*
X465290D01*
X465946Y146205D01*
Y148829D01*
X465290Y149485D01*
X463322D01*
X438901Y154985D02*
Y151706D01*
X439557Y151050D01*
X440869D01*
X441525Y151706D01*
Y154985D01*
X445460Y154329D02*
X444804Y154985D01*
X443493D01*
X442837Y154329D01*
Y153673D01*
X443493Y153017D01*
X444804D01*
X445460Y152362D01*
Y151706D01*
X444804Y151050D01*
X443493D01*
X442837Y151706D01*
X446772Y154985D02*
Y151050D01*
X448740D01*
X449396Y151706D01*
Y152362D01*
X448740Y153017D01*
X446772D01*
X448740D01*
X449396Y153673D01*
Y154329D01*
X448740Y154985D01*
X446772D01*
X450708Y151050D02*
X452020D01*
X451364D01*
Y154985D01*
X450708Y154329D01*
X569624Y155780D02*
X568968Y156436D01*
X567656D01*
X567000Y155780D01*
Y153156D01*
X567656Y152500D01*
X568968D01*
X569624Y153156D01*
Y154468D01*
X568312D01*
X570936Y152500D02*
Y156436D01*
X573560Y152500D01*
Y156436D01*
X574871D02*
Y152500D01*
X576839D01*
X577495Y153156D01*
Y155780D01*
X576839Y156436D01*
X574871D01*
X554624D02*
X552000D01*
Y154468D01*
X553312Y155124D01*
X553968D01*
X554624Y154468D01*
Y153156D01*
X553968Y152500D01*
X552656D01*
X552000Y153156D01*
X555936Y156436D02*
Y153812D01*
X557248Y152500D01*
X558560Y153812D01*
Y156436D01*
X559871Y155780D02*
X560527Y156436D01*
X561839D01*
X562495Y155780D01*
Y153156D01*
X561839Y152500D01*
X560527D01*
X559871Y153156D01*
Y155780D01*
X605124Y157436D02*
X602500D01*
Y155468D01*
X603812Y156124D01*
X604468D01*
X605124Y155468D01*
Y154156D01*
X604468Y153500D01*
X603156D01*
X602500Y154156D01*
X606436Y157436D02*
Y154812D01*
X607748Y153500D01*
X609060Y154812D01*
Y157436D01*
X610371Y156780D02*
X611027Y157436D01*
X612339D01*
X612995Y156780D01*
Y154156D01*
X612339Y153500D01*
X611027D01*
X610371Y154156D01*
Y156780D01*
X620124D02*
X619468Y157436D01*
X618156D01*
X617500Y156780D01*
Y154156D01*
X618156Y153500D01*
X619468D01*
X620124Y154156D01*
Y155468D01*
X618812D01*
X621436Y153500D02*
Y157436D01*
X624060Y153500D01*
Y157436D01*
X625372D02*
Y153500D01*
X627339D01*
X627995Y154156D01*
Y156780D01*
X627339Y157436D01*
X625372D01*
X657000Y156780D02*
X657656Y157436D01*
X658968D01*
X659624Y156780D01*
Y156124D01*
X658968Y155468D01*
X658312D01*
X658968D01*
X659624Y154812D01*
Y154156D01*
X658968Y153500D01*
X657656D01*
X657000Y154156D01*
X660936Y157436D02*
Y154812D01*
X662248Y153500D01*
X663560Y154812D01*
Y157436D01*
X664872Y156780D02*
X665527Y157436D01*
X666839D01*
X667495Y156780D01*
Y156124D01*
X666839Y155468D01*
X666183D01*
X666839D01*
X667495Y154812D01*
Y154156D01*
X666839Y153500D01*
X665527D01*
X664872Y154156D01*
X707124Y156780D02*
X706468Y157436D01*
X705156D01*
X704500Y156780D01*
Y154156D01*
X705156Y153500D01*
X706468D01*
X707124Y154156D01*
Y155468D01*
X705812D01*
X708436Y153500D02*
Y157436D01*
X711060Y153500D01*
Y157436D01*
X712371D02*
Y153500D01*
X714339D01*
X714995Y154156D01*
Y156780D01*
X714339Y157436D01*
X712371D01*
X236000Y146000D02*
Y149936D01*
X237968D01*
X238624Y149280D01*
Y147968D01*
X237968Y147312D01*
X236000D01*
X239936Y149936D02*
Y146000D01*
X241248Y147312D01*
X242560Y146000D01*
Y149936D01*
X243871Y146000D02*
Y149936D01*
X245839D01*
X246495Y149280D01*
Y147968D01*
X245839Y147312D01*
X243871D01*
X245183D02*
X246495Y146000D01*
X223000Y146500D02*
Y150436D01*
X224968D01*
X225624Y149780D01*
Y148468D01*
X224968Y147812D01*
X223000D01*
X226936Y150436D02*
Y146500D01*
X228904D01*
X229560Y147156D01*
Y149780D01*
X228904Y150436D01*
X226936D01*
M02*
