M48
;Layer_Color=9474304
;FILE_FORMAT=2:5
INCH,LZ
;TYPE=PLATED
T1F00S00C0.00800
T2F00S00C0.01000
T3F00S00C0.01181
T4F00S00C0.03150
T5F00S00C0.03346
T6F00S00C0.03543
T7F00S00C0.04331
T8F00S00C0.04724
T9F00S00C0.05118
T10F00S00C0.05906
T11F00S00C0.06693
T12F00S00C0.07874
;TYPE=NON_PLATED
%
T01
X061Y0245169
Y02495
X04345Y0202738
Y0197728
X043951
Y0192
X04345
Y018699
X0428772
Y0192
X0423762
Y0197728
X0428772
Y0202738
T02
X0392435Y019534
Y019844
X0395534
Y019534
T03
X0299Y01025
X0307319
X0307181Y0111141
X0299862
X0294Y010813
Y0116449
Y0124768
Y0133087
Y0141405
Y0149724
X03165Y0136181
Y0127576
Y0119257
Y0111141
X0315638Y01025
X0323957
X0332276
X0340554
X0348873
X0357192
X0365511
X037383
X0382149
X0390468
X0407319
X0415638
X0423957
X0432276
X0440594
X0448913
X04495Y0126537
X0436557Y0125554
X0436365Y0115234
X0418181Y0117467
X04185Y0128819
X0418297Y0137319
X0418Y0150578
X0429648
X0405
X0399417Y0127319
X0399Y0115537
X0407902Y011946
X0377858Y0121
X0381227Y0127819
X0377858Y0136
X0381418Y0140731
X0377607Y0148935
X036632Y0149
X0358797Y0135319
X0359Y0121819
X0360319Y0111
X0348873Y0111085
X0338104
Y0119
Y01275
Y0135895
Y0144214
X0344616Y0156
X0327319Y01115
X0372967Y0111141
X0453453Y0155
X056063Y0148842
Y0145896
X0560652Y0142949
X0564063Y0142883
X0567054
X0570701Y0143757
X0570717Y0141488
X0573116Y0141492
X0573112Y0143757
X0577221Y014536
X0583179Y0145396
X0581526Y0149604
X0584999Y0149481
X0588308Y0149303
X0586571Y0152256
X0583335Y0152307
X0581874Y0154976
X0585095Y0154936
X0588212Y0154882
X0587639Y0140187
X0580361Y0140437
X0584285Y0134728
X0576508Y0134621
X0580325Y0129056
X058796Y0128485
X061348Y0127539
Y0125226
Y0123
X0616115
Y0125226
Y0127539
X061875Y0127539
Y0125226
Y0123
X0566615Y0155811
X0632186Y0154
Y01475
X0632Y0142
Y0137
X0632186Y0133
X0641202Y01325
Y0137
Y0142
Y01475
X064115Y0154
X0636686Y0150852
X06365Y01445
X0636394Y0139
X0634411Y016025
Y017425
X0641047Y0168
Y0182
X0634411Y018825
X0634631Y020225
X0641047Y0196
Y021
X0634631Y021625
Y023025
X0641047Y0224
Y0238
X0616776Y0244776
X0614Y0253916
X06055Y0254781
X05945Y0254819
X05865Y0250874
X0585Y0243732
X05825Y0238403
X0571234Y0235957
X0571238Y0233398
X0570354Y0228129
X0554Y0229
Y023587
X0542Y0236
X0524Y02355
X0516932Y0236025
X0509Y0235
Y02325
X050575Y0232679
Y0235
X05025
Y02325
X0503584Y0241767
X0495432Y0246114
Y0236481
X0497278Y0212282
X0497429Y0208652
X0506Y0211685
X0505118Y0193398
X0522916Y019322
Y0202259
X0546Y0203953
X0549853Y0206061
X0554Y0215238
X0565622Y0202199
X0572703Y0203722
X05785Y0197518
X057498Y0193819
X0570354Y019406
X0570765Y0179584
X0573501Y0179643
X0577578Y0178616
X0581521Y0178668
X0586379Y0178433
X0586458Y0174098
X0588493Y0167708
X0588465Y0164943
X0588424Y0161958
X0582317Y0162533
X0577423Y0167601
X0566543Y0167308
X0560918Y0173521
X0560962Y01766
X0561006Y017959
X0563975
X0567054Y0179568
X0546Y0193353
X05825Y0215238
X0604642Y0215445
X0604571Y0207407
X0605773Y018699
X0606002Y0174697
X0605773Y01635
X059477Y0235511
X05985Y0243099
X0576Y0250045
Y0252553
X0558402Y0254772
X05505Y0248
X0543272Y0254772
X04595Y0250874
X0456Y0242104
X04625Y0241459
X046475Y0242459
X0467Y0241459
X0466986Y02315
Y0228642
X04625Y022882
Y02315
Y0218779
X046475Y0217307
X0467Y0218779
X0464502Y0209319
X0458Y0212115
X0457Y02075
X0450268Y0208268
X0444815Y0208319
X0446234Y02165
X0443232Y0219571
X044Y02195
X0427128
X04245Y0219571
X0421768
X0419Y02195
X0418768Y0213455
X0414268Y0217652
X0415Y0223147
X04125Y0226529
X0407
X04015
X0401079Y0222179
X03975Y0222259
X03935Y0222179
X03895
X03905Y0226529
X0396
X0385
X03795
X0379957Y02215
X038271Y02165
X0379891Y0211688
X0379Y020578
X0374639Y0206647
X0371572Y0211688
X0374391Y02165
X0371638Y02215
X0374Y0226529
X03685
X0363
X0363319Y02215
X0366072Y02165
X0363253Y0211688
X0362Y020578
X0358001Y0206647
X0357681Y0202259
X0352181
X0346681
X0341181
X0341116Y0206724
Y0211688
Y02165
Y0222877
X0341Y0226529
X03465
X0346681Y02215
X0349435Y02165
X0346616Y0211688
X0349682Y0206647
X0354935Y0211688
X0357753Y02165
X0355Y02215
X03575Y0226529
X0352
X0332Y0226272
Y0221366
X0326859Y0221674
X03265Y0226272
X0321
X03155
X031854Y0221674
Y0213355
X03165Y0208
X0316Y0202259
X03215
X0327
X0332
Y0210366
Y0215866
X0326859Y0213355
X0322638Y0217311
Y0208992
X03215Y0194
X0327
X0326677Y0189571
X0335181
X03325Y0194
X0338
X03435
Y0189571
X0349Y01905
X03545Y01895
Y0194
X036
X03655
X0370398
Y01885
Y0183
Y01775
Y0173
X0374524Y0173197
X0376774Y0174697
X0379221Y0175831
X0379024Y0173197
X0382Y0178
Y01835
Y0189
X0382467Y0194188
X03785Y0194252
X03625Y0189409
X0365539Y0184182
Y0175863
Y0169732
X0359Y0176982
X0352577Y01845
X0338927Y0181892
X03295Y017397
X0330749Y0166284
Y0162784
X0330294Y0158784
X0319Y0161181
Y0173181
Y0185579
X0316Y0194
X0314319Y0217311
X036632Y0206647
X0394969Y0209
X03955Y02125
X04015Y021
X040525Y0205
X0405147Y0201319
X0405705Y0189409
X0399Y0189571
Y0182026
X03965Y01775
X04005Y0172884
X0393035Y0169772
X0389Y0172438
X0389035Y0181965
X0405705Y0180084
X0408768Y0182268
X0412232Y0182232
X04185Y0181592
X0418297Y0173855
X0421768Y0171333
X0425232Y0171235
X0431303Y0171268
X0434732Y0171232
X043587Y0164584
X0441Y0164
X0448293Y0164281
X0447744Y017137
X0451173Y0171299
X0443232Y0171268
X044837Y01815
X0447209Y0189943
X0448776Y0191923
X044712Y019388
X0449082Y0195848
X04545Y0192116
X0458525Y0193898
X04585Y0199802
X0465Y0188082
Y0185574
X0465895Y0176695
X0457435Y0165819
X0424Y0164584
X0419Y0165536
X0410148Y0164319
X0396401
X0384Y0162834
X0375015Y0163197
X0353137Y0162322
X0344616Y0166049
X0429Y0179
X0429492Y0211492
X0432Y02115
X043Y0214
X0424746Y02105
X04125Y02065
X0421Y02295
X0429965Y0229465
X0424746Y0241319
X0436Y0242
X0441Y0242
X0443232Y0243858
X0446Y0242
X04485Y02435
X0456Y0224608
Y0219865
X0430695Y0253095
X04175Y0253151
X031Y0226272
X0310221Y0221674
X0301902
X03045Y0226272
X0299
X02935
Y0219865
Y0213259
X02995
X0305
X0306Y0217311
X0297681
X03105Y0213259
Y0207759
Y0202259
Y0194
Y01885
Y0183
X0305
X02995
X0294
Y0174681
Y0166362
Y0158043
X03065Y0163382
X0311Y016783
X0302681Y0175259
T04
X0306476Y014461
X0316476
X0326476
X0348524
X0358524
X0368524
X05715Y0131378
X05715Y0111693
T05
X0612303Y0116311
X0629823
T06
X0512439Y010614
X0522439
X053244
X054244
X0485972Y0144
X0475972
Y0154
X0485972
X06055
X06155
Y0144
X06055
X06255
Y0154
Y0164
Y0174
Y0184
Y0194
Y0204
Y0214
Y0224
Y0234
Y0244
Y0254
X06155Y0214
Y0204
Y0194
Y0184
Y0174
Y0164
X0542674Y0176864
X0532674
X0522674
X0512674
X0485972Y0174
X0475972
Y0184
Y0194
Y0204
Y0214
Y0224
Y0234
Y0244
Y0254
X0485972
Y0244
Y0234
Y0224
Y0214
Y0204
Y0194
Y0184
Y0164
X0475972
X0496Y0253792
X0506
X0516
X0389Y0158
X0379
X0369
T07
X0306476Y0134276
X0326476
X0348524
X0368524
T08
X0472583Y0106902
Y0118713
X0509065Y0119879
X0521065
X0533065
X0545065
Y016106
X0533065
X0521065
X0509065
T09
X0604626Y01045
X06375
T10
X0388Y01125
X0399417Y0106595
X0410835Y01125
X0424746
X0436163Y0106595
X0447581Y01125
X0447187Y0143996
X0436163Y0146752
Y0134154
X042514Y0143996
X0410441
X0399417Y0146752
Y0134154
X0388394Y0143996
T11
X0305453Y0124
X03275
X03475
X0369547
T12
X0464471Y01335
X0637471Y0251402
M30
